<svg xmlns="http://www.w3.org/2000/svg" viewBox="0 0 48 48"><defs><style>.cls-1{fill:#4baf55;}.cls-2{fill:#fff;}</style></defs><g id="Calque_2" data-name="Calque 2"><g id="Calque_5" data-name="Calque 5"><path class="cls-1" d="M48,42.67A5.33,5.33,0,0,1,42.67,48H5.33A5.33,5.33,0,0,1,0,42.67V5.33A5.33,5.33,0,0,1,5.33,0H42.67A5.33,5.33,0,0,1,48,5.33Z"/><path class="cls-2" d="M39,8.48a3.34,3.34,0,0,0-4.61,1L19.91,31.84l-6.7-6.2a3.33,3.33,0,0,0-4.53,4.89l9.62,8.89a3.33,3.33,0,0,0,5.06-.63L40,13.09A3.34,3.34,0,0,0,39,8.48Z"/></g></g></svg>