<svg xmlns="http://www.w3.org/2000/svg" viewBox="0 0 48 48"><defs><style>.cls-1{fill:#e84246;}.cls-2{fill:#fff;}</style></defs><g id="Calque_2" data-name="Calque 2"><g id="Calque_5" data-name="Calque 5"><path class="cls-1" d="M48,42.67A5.33,5.33,0,0,1,42.67,48H5.33A5.33,5.33,0,0,1,0,42.67V5.33A5.33,5.33,0,0,1,5.33,0H42.67A5.33,5.33,0,0,1,48,5.33Z"/><path class="cls-2" d="M28.71,24l11-11A3.33,3.33,0,0,0,35,8.31l-11,11-11-11A3.33,3.33,0,1,0,8.29,13l11,11-11,11A3.33,3.33,0,1,0,13,39.73l11-11,11,11A3.33,3.33,0,0,0,39.69,35Z"/></g></g></svg>